<svg width="67" height="67" viewBox="0 0 67 67" fill="none" xmlns="http://www.w3.org/2000/svg">
<circle cx="33.5" cy="33.5" r="33.5" fill="black"/>
<path d="M36.5039 7.12012C39.3626 7.12012 41.9015 7.69567 44.1201 8.84766C46.3813 9.99956 48.1091 11.5571 49.3037 13.5195C50.541 15.4822 51.1602 17.6377 51.1602 19.9844C51.1601 22.1176 50.4984 24.1654 49.1758 26.1279C47.8531 28.0479 46.1037 29.7329 43.9277 31.1836C41.7944 32.5916 39.5329 33.6585 37.1436 34.3838L41.3037 35.792L51.2236 51.792L58.8398 55.5684L57.5596 58.1279H45.6562L31.5762 35.4082L28.5684 33.2324L29.5283 31.3115H33.1123C36.0135 31.3115 38.296 30.5864 39.96 29.1357C41.6666 27.6424 42.5195 25.6156 42.5195 23.0557C42.5195 19.6851 41.5814 16.8905 39.7041 14.6719C37.8268 12.4106 35.0957 11.2803 31.5117 11.2803C29.1225 11.2803 26.9251 11.9837 24.9199 13.3916V53.2637L31.6396 55.5684L30.3604 58.1279H10.9043V56.1436L16.9199 51.4082V12.4961L10.2637 10.3203L11.5439 7.75977H18.9678C22.8504 7.75977 26.6692 7.63197 30.4238 7.37598C33.1544 7.20531 35.1812 7.12012 36.5039 7.12012Z" fill="#44A5EC"/>
</svg>
